# xmcd CD database file
#
# Track frame offsets:
#	150
#	22000
#	42575
#	62840
#	85190
#	107082
#
# Disc length: 1702 seconds
#
# Revision: 0
# Processed by: cddbd v1.5PL3 Copyright (c) Steve Scherf et al.
# Submitted via: CDex 1.51
#
DISCID=4c06a406
DTITLE=S.E.S - Lovin' you
DYEAR=2000
DGENRE=JPop
TTITLE0=Lovin' you
TTITLE1=Love is … day by day
TTITLE2=Lovin' you  Opus Mix
TTITLE3=Lovin' you  Muse Mix
TTITLE4=Lovin' you  Instrumental
TTITLE5=Love is … day by day  Instrumental
EXTD=YEAR: 2000
EXTT0=
EXTT1=
EXTT2=
EXTT3=
EXTT4=
EXTT5=
PLAYORDER=
